<svg xmlns="http://www.w3.org/2000/svg" viewBox="0 0 776.7 209.8"><path d="M775.3 192.4c-.4 1.4-1 2.3-1.7 3.4-3.6 5.6-8.8 7.6-15.3 7.4-8.8-.3-16.5-3.4-24-7.7-2.2-1.3-4.5-2.6-6.6-4-1.3-.9-2.3-.8-3.6 0-4.7 2.8-9.5 5.4-14.4 8-6.7 3.6-14 5.3-21.5 5.7a19.92 19.92 0 0 1-9.6-1.9c-5.7-2.7-7.8-8.9-5-14.6 1.4-2.7 3.4-5.4 5.9-7.3 4.6-3.5 9.7-6.4 14.6-9.5l1.7-1c-1-.8-1.9-1.5-2.6-2.2-4.2-3.9-8.7-7.5-12.5-11.8-2.3-2.5-3.5-4.5-5.6-7-1.9-2.2-.7-3.6 1.9-4.3 4-1.1 8-2.1 12.1-3l48.2-10.8c4-.8 8.3-.8 12.4-.5 6.2.5 9.2 3.5 10.5 9.9 1.8 8.4-1.2 15.8-5.5 22.7-1.6 2.6-3.7 4.9-5.6 7.3-.5.7-1.1 1.4-1.9 2.4a26.52 26.52 0 0 0 2.9.8l12.1 2.9c6.7 1.4 11 5.2 12.9 11.8.2.6.4 1.2.5 1.8-.1 1-.2 1-.3 1.5zm-73-39.3c0 .2-.1.4-.1.7l14 6.4c.6.3 1.7.1 2.3-.3l12.4-7c.8-.5 1.5-1.1 2.2-1.7-.1-.2-.2-.4-.2-.5l-30.6 2.4zm-75.6 17.7l6.4-.9c6.4-.8 12.8-.8 19.1.7 3.5.8 6.5 2.6 8.6 5.6 2.5 3.5 2 6.8-1.4 9.4-2.9 2.2-6.2 3.2-9.8 3.2-6.8.1-13.6.1-20.5-.1-2-.1-2.7.6-3.1 2.5-1.7 7.4-5.6 13-13.3 15-10.3 2.8-20.2-4.3-21.6-15.5-.3-2.9-.2-5.8.1-8.7 1.7-18.2 2.4-36.3 1.9-54.6-.1-2.7-.6-5.5-1.5-8-3.9-11.2-4-11.1 1.4-21.4-.6-.2-1.2-.4-1.9-.5-5-1.1-8.2-4.6-7.8-9.7.3-3.4 1.4-6.8 2.4-10.1.5-1.6 1.5-3 2.2-4.5 1.1-2.2 1.1-4.5.1-6.8l-3.8-8.4c-.5-1.1-.9-2.3-1.2-3.5-.7-2.8-.3-5.3 1.8-7.3 2.2-2 5.1-2.4 7.4-.9 4.2 2.5 8.2 5.4 12 8.4 1.4 1.1 2.5 1.5 4.2.9 15.5-5.4 31.3-9.4 47.6-11.8.5-.1.9-.3 1.5-.5l-1.7-13.2-14.4 2.2-26.9 4c-9.3 1.2-17.9-1-25.3-6.9C587.5 28 586 26 585 24c-1-1.9-.4-4 1.4-5.4 1.7-1.3 3.8-1.6 5.3-.3 6.2 5.2 13.1 4.2 20.1 2.4 16.8-4.1 33.5-8.6 50.4-12.1C683 4.2 704.1 2 725.4 3.3c8.5.5 16.9 1.5 25 4.2 4.5 1.5 8.3 3.9 10.9 7.9 4.8 7.3 1.3 15.9-7.3 17.4-3.3.6-7.1.6-10.3-.3-13.6-3.8-27.3-5.6-41.4-5.7h-4.4l.9 12.8 4.3-.3 31.4-1c4.5-.1 9 .2 13.5.4 4.3.2 7.5 2.9 9 7.7 2.1 6.9 2.5 13.9 1.4 21-.2 1.4-.3 2.8-.6 4.2-.7 4.7-1.2 9.4-4.9 13.6l6.2.8 2.5.3c4.7 1.1 7.5 4.7 6.8 8.9s-4.2 6.7-9 6.4c-.6 0-1.1-.1-1.7-.1l-1.1 7.4c-.1.6.5 1.3.9 1.8.7.7 1.6 1.2 2.2 2 2.1 2.5 3.4 5.4 2.2 8.7-1.2 3.4-4.1 5-7.3 5.1-3.5.1-7.1-.3-10.6-1.1-14.2-3-28.4-2.9-42.7-1.6-5 .5-10.1 1.3-15.1 1.9-3.5.4-5.4-.5-7.5-3.6 1.5-1 2.9-2.1 4.5-2.9 10.9-5.5 22.7-7.9 34.6-10 3.9-.7 7.9-1 11.9-1.6.7-.1 1.8-.6 1.9-1.1.8-2.7 1.3-5.5 1.9-8.5-1.1 0-2.1-.1-3-.1-8.9 0-17.8.3-26.7 0-4.1-.1-8.2-1.1-12.2-2-1.8-.4-4.1-1.5-3.6-4 .5-2.4 2.9-2 4.8-2.2l25-2.7 12.6-1.4 2.3-.3-3.1-9c-13.3.3-26.7.5-37.9-9.9-3.1 9.6-5.1 19.7-14.5 26 .5.7 1 1.4 1.5 2 4 5.7 2.8 13.2-2.5 17.7-1.6 1.4-3 3.3-4 5.1-1.5 2.5-2.6 5.2-3.8 7.8 1.8.9 3.6 1.6 5.2 2.7 2.1 1.5 2 3.1-.1 4.6-1.3.9-2.9 1.7-4.5 2-6 .9-12 1.7-18 2.3-7 .7-14.1 1.1-21.1 1.6-4.1.3-4.1.3-3.9 4.4 0 .8.1 1.6.2 2.3.4.1.6.2.7.2 7.4-2.6 14.8-1.2 22.1.5 2.2.5 4.5 1.4 6.3 2.7 3.7 2.7 3.5 7.2-.3 9.8-1.1.8-2.5 1.4-3.8 1.8-6.9 1.7-13.8 3.1-20.9 3.2-4 .1-4 .2-3.8 4.3l.2 3.4zm5.4-97c-4.4-4.3-7.9-8.8-7.9-15.2L609.9 61c5.9 12.4 4.6 23.4-4.5 32.7l8.4 5.1c.7.4 1.7.3 2.6.1l40.6-7.7 8.3-1.5-4.9-10.5c-1.2.4-2.4.6-3.6 1.1-10.3 4-21.2 5.5-32 7.3-2.8.5-5.6.2-8.1-1.7-1.1-.9-1.6-1.9-.5-2.9 2.3-2 4.5-4.1 7.1-5.6s5.6-2.3 8.8-3.6zm-6.6 56.2l20.7-3.9c.5-.1 1.2-.8 1.2-1.2l.5-11-24.7 1.6c.9 5.1 1.6 9.9 2.3 14.5zM738 52.6h-11.9c-2-.1-3.3.1-4.1 2.4-.5 1.7-2.2 3.1-3.5 4.4-.9.9-2 1.6-3.3 2.5 5.7 2.1 11.8 2.6 16.1 7.9l6.7-17.2zM640.9 56c1.5 2.5 3 4.4 4 6.5s1.4 4.5 2.1 7.1l10.6-1.2c.5-.1 1.2-.8 1.2-1.2-.1-4.3-.4-8.6-.7-13.2l-17.2 2zm63.1-2.7c-.1-.2-.2-.5-.2-.7h-3.9c-4.4.1-5 .7-5.1 5.3 4.7 1.5 6-3.3 9.2-4.6zm-173.9 71.1l6.4 4.2c8.6 5.7 16.2 12.5 21.4 21.6 1.1 2 2.2 4.1 3 6.3 4.5 12-2.1 22.9-14.7 24.9-5.5.9-10.9.4-16.3-1-8.2-2.2-15.9-5.3-23.2-9.5-1.8-1.1-3.2-2.9-4.8-4.4 1.9-1.3 3.6-3 5.6-3.7 5.6-2 11.2-3.6 16.9-5.3l3.5-1.1c-1.7-1.7-2.9-3.1-4.3-4.4L507 136.5c-3-2.9-5.2-6.3-6.2-10.4-.1-.6-1.1-1.4-1.6-1.4-3.6.2-7.3.6-11.1.9.1.6.1 1.1.3 1.4 5.8 9.8 7.7 20.7 8.3 31.8.6 10.8.1 21.5-3.9 31.7-1.9 5-4.8 9.1-9.6 11.7-9.9 5.4-22.1 1-26.5-9.8-3-7.3-3.9-15-2.9-22.8 1.3-10.6-.5-20.3-7-29-1.3-1.8-2.4-3.8-3.2-5.9-.7-1.8-1.6-2.2-3.5-2-8.5 1.1-17 2.5-25.5 2.9-5.2.2-10.7-.7-15.7-2.2-3.8-1.2-7.2-4-10.4-6.5-1.3-1-2.3-2.9-2.8-4.6-1.7-5.4 2.1-9.8 7.7-9.1.5.1 1 .1 1.5.3 7.9 4 16.1 2.8 24.2 1l43.7-10.4c.3-.1.6-.3 1.2-.6-3.9-4.1-5.2-9.1-5.2-14.9-2 1.3-3.6 2.4-5.3 3.3-5.2 2.8-10.4 5.7-15.7 8.1-3.3 1.5-6.9 2.7-10.4 3-8.2.7-13.3-7.1-9.2-14.3 1.9-3.4 5.1-6.2 8.1-9.5-3.6-5.8-6.7-12.4-.8-19.9l-10.9 1.8c.7 4.7 1.6 9.2 2 13.7.6 7-.3 13.8-3.6 20.1-.8 1.5-1.7 2.9-2.8 4.1-4.8 5.5-12.2 7-18.3 3.6-6.1-3.3-9-10.4-6.9-17.3.7-2.2 1.7-4.3 2.6-6.5 3.3-7.2 4.2-14.5.9-22-.5-1.2-.9-2.5-1.1-3.8-.5-3.7.4-7 3.6-9.2 3.2-2.3 6.8-2.3 9.8-.1 3.3 2.5 6.1 5.6 8.9 8.6.9.9 1.4 1.6 2.9 1.2l44.8-10.9c.2 0 .3-.2.8-.5-1.2-2.9-2.3-5.9-3.7-8.8-.2-.5-1.6-.6-2.4-.5-10.1.7-20.2 1.7-30.3 2-7.1.2-13.8-2-19.4-6.8-1.5-1.3-3-2.9-4.1-4.7-1.4-2.3-.9-5 .8-6.7s4.4-2.3 6.4-.7c5.7 4.7 12 3.6 18.3 2.4 13-2.5 25.8-5.7 38.9-7.9 22.5-3.9 45.2-6.2 68-5.4 6.8.2 13.6.9 19.9 4 .7.3 1.4.6 2 1 4.9 2.8 7.2 7.6 6 12.6-1.1 4.7-5.4 8.1-11 8.1a168.56 168.56 0 0 1-14.2-.6c-15.2-1.2-30.4-1.3-45.6-.4-.7 0-1.5.2-2.6.3.9 2.5 1.6 4.8 2.6 7.1.2.4 1.2.7 1.9.7 17.7-1.3 35.3-2.4 53.1-2.3 4.5 0 9-.5 13.6.2 4.5.6 7.8 2.6 9.6 6.5 1.5 3.4 2.7 7 3.3 10.7 1.5 9.5.6 18.9-3 27.9-2.3 5.7-6 10.5-11.5 14.3 1.1.3 1.7.6 2.4.8 3.4 1.1 6.9 1.9 10.2 3.4 2.5 1.1 4.9 2.6 6.8 4.5 6.2 6.3 4.5 15.5-3.6 19.1-2.4 1.1-5.3 1.8-7.9 1.8-8.4-.1-16.8-.8-25.2-1.1-2.4-.1-4.8 0-7.2 0 0 .4-.1.6-.2.8zm-.7-71.6c-1 3.6-1.3 6.6-2.6 9.1s-3.5 4.5-5.3 6.7c1.5 1.1 3.2 2.1 4.7 3.4 2.5 2.2 4.1 5 3.2 8.4-.9 3.5-3.6 5.3-6.9 5.7-3.3.3-6.9.6-10.1-.3-6.9-2-14.4-2.4-20.3-7.1l-2.3 19.9 45-4.5c-5.7-7.5-3.6-14.5 1.3-21.3 1.3-1.8 2.7-3.6 3.8-5.5 1.6-2.8 3.1-5.7 4.6-8.6.5-1 .6-2-.8-2.3-4.9-1.4-9.9-2.6-14.3-3.6zm-68.9 18.7c.8-6 2.4-11.6 1-18.1l-27.3 4.2c4.9 3.3 8.9 6.8 10.9 12.2.2.4 1.3.7 1.9.7 2.6 0 5.1-.3 7.7-.2 1.8.1 3.6.7 5.8 1.2zM512 52.2c-.1-.3-.1-.7-.2-1h-18.7c-1.4 0-1.8.6-1.7 2l.4 14.2c0 .4.2.9.2 1.1 2.1-1 4-2.4 6.1-2.9s3.5-.9 4-3.4c.3-1.5 1.8-2.9 3.1-4.1 2.2-2.1 4.5-3.9 6.8-5.9zM214.6 85.4l-5.7 1.1c-11.7 1.8-22.3-6.3-23.4-17.8-.7-6.6 2.3-11.3 8.8-12.9 4.2-1 8.7-1.6 13-1.8 2.7-.2 5.1-.5 6.8-2.8 0-.1.1-.1.2-.2 4.4-2.6 4.7-6.5 4.3-11.1-.8-9.5-1.5-18.9-4.9-27.9-1-2.6-.6-5.2 1.5-7.1 2.3-2.1 4.8-1.7 7.5-.7 9.5 3.7 14.2 11.4 16.7 20.7.7 2.6 1.1 5.3 1.7 8.2 2-.5 3.7-1.1 5.4-1.5 9-1.8 17.3-.1 24.2 6.1 6.1 5.6 7.4 12.9 4 20.4-.2.4-.3.7-.5 1.5l32.5-10c-.9-.7-1.4-1.3-2-1.8l-15.9-12.4c-.7-.5-1.8-.6-2.8-.8-3.2-.8-6.5-1.4-9.6-2.6-2.8-1.1-4.1-3.7-3.7-6.2.4-2.8 2.4-4.2 5-5L333.4 4c3.7-1.1 7.3-2.2 11.1-2.9C355.2-.7 363 8 359.6 18.3c-2.5 7.6-5.4 15.2-10.9 21.4-.3.3-.4.7-.7 1.1l13.8.9c1.8.2 3.7.5 5.4 1.1 3 1.1 5.3 2.9 5.2 6.5 0 .5.3 1.1.5 1.6 3.5 6.6 2.8 13-1.4 19.1-5.9 8.7-14.7 12.7-24.7 14.4-4.5.8-8.9.7-13.3-.9-1.1-.4-2.2-.4-3.3-.6v20.3c3.4-.4 7.1-.7 10.7-1.4a66.71 66.71 0 0 0 10-2.6c7.8-2.9 16.1.2 19.9 7.5 2.8 5.5 3.9 11.3 3.9 17.4l-.6 63.9c-.1 3.5-.8 7.2-2.1 10.4-2.5 6.3-7.6 9.6-14.4 9.6s-11.8-3.4-14.5-9.6c-1-2.4-2.5-3.3-4.7-4.1-9-3.2-18.5-3.1-27.8-4.1l-28.8-3.1c-2-.2-3.8-1.5-6-2.4l-1 2.6c-1.6 3.5-4.1 6.1-8.1 6.1-3.8 0-6.4-2.5-7.9-6-1.8-4-2-8.2-1.8-12.5l1.8-25.6c.5-8.7-.9-17.1-3.8-25.3-.5-1.3-1.4-2.4-2-3.7-.7-1.5-1.5-2.9-1.9-4.5-.3-1.3-.2-2.6-2.1-2.1-1.6.4-3.9-.3-3.8 2.7l.6 22.5-.3 40.7c-.1 4.7-1.1 9.3-4.3 13-5.6 6.6-15.1 7.7-22.6 2.5-6.7-4.6-10-11.5-12.2-18.9-2-6.8-3.7-13.8-5.4-20.8-.4-1.8-1-2.2-2.8-1.8-6.7 1.6-12.5-.3-16.6-5.8-4.2-5.5-4.3-11.5-1-17.6.7-1.3 1.6-2.5 2.6-3.7l23.6-28.8c2.6-3.3 4.7-7 7-10.6.2.1.4-.7.8-1.7zm125.8 52.5c-1.8 1.3-4.2 1.9-3.5 4.7.1.5-.6 1.1-.9 1.7-.4.9-.9 1.9-1.1 2.9l-2.3 15.5c-.3 1.5-.5 2.5.7 3.7 2.9 3 2.3 6.7-1.5 8.6-1.7.8-3.6 1.5-5.4 1.6-5.7.3-11.5.5-17.2.5-3.9 0-7.8-.5-11.7-.7-.6 0-1.3.5-1.8 1-2.4 2.5-4.7 2.6-6.5-.4-1.6-2.6-2.6-5.5-3.7-8.4-1.3-3.2-2.3-6.6-3.7-9.7-.7-1.5-2.2-2.7-3.7-4.5l-1.5 26.5c3.2-.3 6.4-1.1 9.6-.9l39.3 2.3c4.9.3 9.9.8 14.9 1.2v-45.6zm-76.6-50.2l21.7-14.3c-3.4-.3-7.1-.1-10.4-1-4.1-1.1-4.8-4.7-4.3-9-6 4.5-11.9 4.3-18.2 2.2-2.2-.7-5 .2-7.5.5-.5.1-1.2.7-1.2 1-.1 2.3-.3 4.7.1 6.9.2.8 2.1 1.3 3.2 1.9 1.3.7 2.7 1.1 3.8 1.9l12.8 9.9zm16.8 10.4l-17.1 11.4 8.5 10.3 25.2-8.7-16.6-13zm8.9 54c9.3-6.6 20.2-9.5 31.2-13.4-6.8-3.2-13.8-5.8-15.6-13.8-4.5.5-4.5.5-5.7 4.5-.2.6-.3 1.1-.5 1.7-2.3 7.3-5.2 14.4-9.4 21zm4.5 4.5l4.2 10.2 14.8-3.3c.6-.1 1.3-1.1 1.5-1.8.8-3.1 1.4-6.3 2.1-9.4a49.15 49.15 0 0 1 .9-3.2l-23.5 7.5zm27.8-91.2l7.3 15.2c5-8.1 12.3-13.5 19.5-19-.1-.2-.3-.5-.4-.7l-26.4 4.5zM221 127.9c-.4.1-.6.1-.7.3l-10.1 16c-.3.5 0 1.8.5 2.3 3.1 3.5 6.2 6.9 9.4 10.3.2.2.5.2.9.4v-29.3zm82.6-94.4l15.8 9.2c.4.2 1.7-.4 2.1-.9 2.3-3.4 4.4-6.8 6.6-10.3.5-.8.9-1.6 1.8-3.1l-26.3 5.1zm19.7 88v.8c5.9 2.8 12.6 4.3 16.9 10.5V120l-16.9 1.5zm-38 7.6l-9.7 1.5 2 10.3c.2 0 .4.1.6.1l7.1-11.9zm4.2-36.7l6.7 2.7c.2-.2.4-.4.6-.7-.5-2.2-1.1-4.3-1.7-6.8-2 1.8-3.6 3.1-5.6 4.8zM93.3 47.6c10.8 6.9 13.4 17 13.1 28.6 4-.5 7.7-1.2 11.4-1.5 13-1.1 26-2.4 39.1-.2 5.1.9 9.9 2.4 13.6 6.2 6 6.1 7.7 13.4 4.6 21.4s-9.3 12.2-17.8 12.7c-2.5.1-5-.2-7.4-.5-13.9-1.6-27.8-2.2-41.8-.7-2 .2-2.4.9-2.6 2.8-1.3 16.5-1.3 32.9-.3 49.4.5 8.2-.6 16.1-3.6 23.7s-8.4 12.3-16.8 12.8c-9.3.6-17.1-5.4-19.3-15-1-4.4-1.8-8.9-1.9-13.3l-.6-42.1c0-3 .5-6.1.9-9.5-1.3.3-2.3.4-3.3.7-8.6 2-17.1 4.5-25.8 5.9-9.8 1.6-19-.6-26.6-7.1-2.4-2-4.5-4.8-5.7-7.7-2.4-5.6 1.9-10.9 8-10.4.4 0 .8.1 1.2.2 8 2.5 15.2.6 22.6-2.9 9.5-4.5 19.4-8.3 29.2-12.3 1.8-.7 2.6-1.7 2.6-3.7 0-3.2.4-6.3.4-9.5 0-1.3-.6-2.7-1.3-3.8-2.6-4-5.3-8-8.1-11.9-.5-.7-1.9-.9-2.9-.9-6.4.2-12.8 1.1-19.1.8-8.2-.3-15.3-4.3-22-8.7-3-2-3.9-4.9-2.8-7.6 1-2.7 3.5-3.9 7.2-3.5.7.1 1.4.1 2 .3 6.7 2.4 13.3 1.4 19.7-1.2 7.7-3.1 15.4-6.3 22.9-9.9 21-10 42.5-18.3 65.7-21.2 6.2-.8 12.8-.2 19.1.8 7.9 1.2 14.1 6.2 19.4 12 4 4.4 5.2 9.9 2.5 15.5-2.8 5.7-7.8 7.9-13.8 7.5-3.6-.2-7.3-.9-10.8-2-8.6-2.7-17.1-2.3-25.6-.4l-22.1 5.1c-1 .3-1.7.6-3.2 1.1z"/></svg>